<?xml version="1.0" standalone="no"?>
<!DOCTYPE svg PUBLIC "-//W3C//DTD SVG 20010904//EN"
 "http://www.w3.org/TR/2001/REC-SVG-20010904/DTD/svg10.dtd">
<svg version="1.0" xmlns="http://www.w3.org/2000/svg"
 width="256.000000pt" height="256.000000pt" viewBox="0 0 256.000000 256.000000"
 preserveAspectRatio="xMidYMid meet">
<metadata>
Created by potrace 1.11, written by Peter Selinger 2001-2013
</metadata>
<g transform="translate(0.000000,256.000000) scale(0.100000,-0.100000)"
fill="#000000" stroke="none">
<path d="M80 1290 l0 -1200 1200 0 1200 0 0 1200 0 1200 -1200 0 -1200 0 0
-1200z m1043 944 c91 -47 357 -267 357 -296 0 -5 -19 -27 -42 -49 l-42 -39
-90 88 c-97 94 -182 162 -258 206 -27 15 -48 31 -48 34 0 12 64 72 77 72 8 0
28 -7 46 -16z m-244 -519 c36 -31 37 -38 12 -73 -20 -29 -47 -112 -87 -273
-27 -107 -74 -342 -74 -367 0 -8 29 13 65 47 200 187 472 303 715 305 128 1
226 -22 307 -71 99 -59 143 -113 184 -225 33 -90 20 -248 -28 -343 -72 -143
-235 -256 -458 -318 -110 -31 -289 -57 -394 -57 l-78 0 -32 50 c-18 28 -37 50
-42 50 -5 0 -9 5 -9 10 0 6 45 10 115 10 291 0 544 73 687 199 148 131 171
363 48 482 -137 133 -394 140 -660 17 -139 -63 -365 -238 -423 -327 -19 -28
-46 -24 -92 13 l-29 24 13 103 c7 57 19 140 28 184 32 171 54 282 63 320 27
112 49 215 55 257 l6 48 38 -20 c21 -10 52 -31 70 -45z"/>
</g>
</svg>
